<svg width="108" height="24" viewBox="0 0 108 24" fill="none" xmlns="http://www.w3.org/2000/svg">
<path d="M5.75813 23H-0.00187492V0.599998H5.75813V9.4H8.63813L13.6301 0.599998H19.7101L13.4381 11.64L19.6781 23H13.5981L8.63813 13.88H5.75813V23ZM41.1431 23H35.0631L27.3831 9.56V23H21.6231V0.599998H27.7031L35.3831 14.04V0.599998H41.1431V23ZM59.3981 6.68C59.3981 5.4 58.7581 4.76 57.4781 4.76H52.0381C50.7581 4.76 50.1181 5.4 50.1181 6.68V16.92C50.1181 18.2 50.7581 18.84 52.0381 18.84H57.4781C58.7581 18.84 59.3981 18.2 59.3981 16.92V6.68ZM65.1581 16.92C65.1581 19.16 64.6461 20.792 63.6221 21.816C62.6195 22.8187 60.9981 23.32 58.7581 23.32H50.7581C48.5181 23.32 46.8861 22.8187 45.8621 21.816C44.8595 20.792 44.3581 19.16 44.3581 16.92V6.68C44.3581 4.44 44.8595 2.81867 45.8621 1.816C46.8861 0.791999 48.5181 0.279999 50.7581 0.279999H58.7581C60.9981 0.279999 62.6195 0.791999 63.6221 1.816C64.6461 2.81867 65.1581 4.44 65.1581 6.68V16.92ZM85.6531 22.68C80.8958 23.1067 76.9491 23.32 73.8131 23.32C71.7225 23.32 70.1865 22.8293 69.2051 21.848C68.2238 20.8667 67.7331 19.3307 67.7331 17.24V7C67.7331 4.76 68.2345 3.13867 69.2371 2.136C70.2611 1.112 71.8931 0.599998 74.1331 0.599998H85.6531V5.08H75.4131C74.1331 5.08 73.4931 5.72 73.4931 7V17.24C73.4931 17.7307 73.6318 18.1253 73.9091 18.424C74.2078 18.7013 74.5811 18.84 75.0291 18.84C75.4771 18.84 75.9678 18.84 76.5011 18.84C77.0345 18.8187 77.5891 18.7973 78.1651 18.776C78.7411 18.7547 79.3171 18.7333 79.8931 18.712C80.4905 18.6907 81.2478 18.648 82.1651 18.584C83.1038 18.52 84.2665 18.4453 85.6531 18.36V22.68ZM93.9769 23H88.2169V0.599998H93.9769V9.4H96.8569L101.849 0.599998H107.929L101.657 11.64L107.897 23H101.817L96.8569 13.88H93.9769V23Z" fill="white"/>
</svg>
