<svg width="26" height="27" viewBox="0 0 26 27" fill="none" xmlns="http://www.w3.org/2000/svg">
<path d="M7.52815 1.86157C8.06138 1.86157 8.5527 2.14056 8.81157 2.59036L10.6072 5.71067C10.8422 6.11923 10.8533 6.61339 10.6367 7.03136L8.90684 10.369C8.90684 10.369 9.40814 12.8553 11.5061 14.8792C13.6042 16.9032 16.1728 17.3784 16.1728 17.3784L19.6319 15.7099C20.0654 15.5008 20.5781 15.5116 21.0017 15.7388L24.2453 17.4785C24.7112 17.7284 25 18.2021 25 18.7162V22.3086C25 24.138 23.2385 25.4594 21.4418 24.8744C17.7514 23.6732 12.023 21.386 8.39218 17.8833C4.76138 14.3806 2.39046 8.85435 1.14525 5.29426C0.538976 3.56084 1.90863 1.86157 3.80494 1.86157H7.52815Z" fill="#243C4D" stroke="white" stroke-width="2" stroke-linejoin="round"/>
</svg>
