<svg width="28" height="26" viewBox="0 0 28 26" fill="none" xmlns="http://www.w3.org/2000/svg">
<path d="M1 20.702C2.31975 21.3979 11.8731 26.6505 18.6662 22.6022C25.4594 18.554 25.0846 11.5794 25.0846 8.38346C25.7 7.15383 27 6.52871 27 3.2004C25.7231 4.32548 24.4538 4.70829 23.1924 4.34884C21.9565 2.55157 20.2561 1.75664 18.0912 1.96408C14.8438 2.27524 13.6558 5.31397 14.0054 9.24534C8.99835 11.6604 5.07208 7.49462 3.04865 4.34884C2.37257 6.8263 1.72068 9.80064 3.04865 13.091C3.93396 15.2845 6.06213 17.139 9.43317 18.6544C6.01684 20.4205 3.20577 21.103 1 20.702Z" fill="#243C4D" stroke="white" stroke-width="2" stroke-linejoin="round"/>
</svg>
