<svg width="107" height="105" viewBox="0 0 107 105" fill="none" xmlns="http://www.w3.org/2000/svg">
<path d="M86.75 80.5914V94.7124C86.75 97.3012 84.6363 99.4194 82 99.4194H36.875C34.2625 99.4194 32.125 97.3247 32.125 94.7124V80.5914" stroke="#243C4D" stroke-width="10.5039" stroke-miterlimit="2" stroke-linecap="round" stroke-linejoin="round"/>
<path d="M22.625 31.1682V19.4007C22.625 11.6019 29.005 5.27979 36.875 5.27979H63H86.75C94.62 5.27979 101 11.6019 101 19.4007V66.4705C101 74.2693 94.6345 80.5915 86.7643 80.5915C70.0462 80.5915 43.192 80.5915 32.125 80.5915C15.5 80.5915 6 61.7635 6 49.9961C6 38.2286 6 31.1682 6 31.1682H22.625Z" fill="#243C4D" stroke="#243C4D" stroke-width="10.5039" stroke-miterlimit="2" stroke-linecap="round" stroke-linejoin="round"/>
<path d="M22.625 28.8147V47.6426" stroke="#243C4D" stroke-width="10.5039" stroke-linecap="round"/>
</svg>
