<svg width="97" height="88" viewBox="0 0 97 88" fill="none" xmlns="http://www.w3.org/2000/svg">
<path d="M11.5625 72.3332C7.93814 72.3332 5 69.4218 5 65.8302V45.6917C5 40.7637 7.81063 36.2588 12.2594 34.0566L13.7512 33.3181L18.8042 11.8372C19.7276 7.91206 23.2584 5.13489 27.3256 5.13489H70.3938C74.4914 5.13489 78.0404 7.95284 78.9333 11.9158L83.7568 33.3181L85.2449 34.0553C89.6912 36.2586 92.5 40.7619 92.5 45.6882V65.8302C92.5 69.4218 89.562 72.3332 85.9375 72.3332H81.5693V74.5009C81.5693 79.2896 77.6484 83.1717 72.816 83.1717C67.9834 83.1717 64.0625 79.2896 64.0625 74.5009V72.3332H33.4375V74.5016C33.4375 79.29 29.5203 83.1717 24.6882 83.1717C19.856 83.1717 15.9387 79.29 15.9387 74.5016V72.3332H11.5625Z" fill="#243C4D" stroke="#243C4D" stroke-width="8.75327" stroke-linejoin="round"/>
<path d="M26.875 39.8179H70.625L67.0112 23.7035C66.5665 21.7201 64.7912 20.3087 62.7406 20.3087H34.7594C32.7088 20.3087 30.9335 21.7201 30.4888 23.7035L26.875 39.8179Z" fill="#243C4D" stroke="white" stroke-width="8.75327" stroke-linejoin="round"/>
</svg>
